<svg aria-hidden="true" style="position: absolute; width: 0; height: 0; overflow: hidden;" version="1.1" xmlns="http://www.w3.org/2000/svg" xmlns:xlink="http://www.w3.org/1999/xlink">
<defs>
<symbol id="icon-moon" viewBox="0 0 24 24">
<path d="M21.996 12.882c0.022-0.233-0.038-0.476-0.188-0.681-0.325-0.446-0.951-0.544-1.397-0.219-0.95 0.693-2.060 1.086-3.188 1.162-1.368 0.092-2.765-0.283-3.95-1.158-1.333-0.985-2.139-2.415-2.367-3.935s0.124-3.124 1.109-4.456c0.142-0.191 0.216-0.435 0.191-0.691-0.053-0.55-0.542-0.952-1.092-0.898-2.258 0.22-4.314 1.18-5.895 2.651-1.736 1.615-2.902 3.847-3.137 6.386-0.254 2.749 0.631 5.343 2.266 7.311s4.022 3.313 6.772 3.567 5.343-0.631 7.311-2.266 3.313-4.022 3.567-6.772zM19.567 14.674c-0.49 1.363-1.335 2.543-2.416 3.441-1.576 1.309-3.648 2.016-5.848 1.813s-4.108-1.278-5.417-2.854-2.016-3.648-1.813-5.848c0.187-2.032 1.117-3.814 2.507-5.106 0.782-0.728 1.71-1.3 2.731-1.672-0.456 1.264-0.577 2.606-0.384 3.899 0.303 2.023 1.38 3.934 3.156 5.247 1.578 1.167 3.448 1.668 5.272 1.545 0.752-0.050 1.496-0.207 2.21-0.465z"></path>
</symbol>
<symbol id="icon-sun" viewBox="0 0 32 32">
<path d="M16 9c-3.859 0-7 3.141-7 7s3.141 7 7 7 7-3.141 7-7c0-3.859-3.141-7-7-7zM16 21c-2.762 0-5-2.238-5-5s2.238-5 5-5 5 2.238 5 5-2.238 5-5 5zM16 7c0.552 0 1-0.448 1-1v-2c0-0.552-0.448-1-1-1s-1 0.448-1 1v2c0 0.552 0.448 1 1 1zM16 25c-0.552 0-1 0.448-1 1v2c0 0.552 0.448 1 1 1s1-0.448 1-1v-2c0-0.552-0.448-1-1-1zM23.777 9.635l1.414-1.414c0.391-0.391 0.391-1.023 0-1.414s-1.023-0.391-1.414 0l-1.414 1.414c-0.391 0.391-0.391 1.023 0 1.414s1.023 0.391 1.414 0zM8.223 22.365l-1.414 1.414c-0.391 0.391-0.391 1.023 0 1.414s1.023 0.391 1.414 0l1.414-1.414c0.391-0.392 0.391-1.023 0-1.414s-1.023-0.392-1.414 0zM7 16c0-0.552-0.448-1-1-1h-2c-0.552 0-1 0.448-1 1s0.448 1 1 1h2c0.552 0 1-0.448 1-1zM28 15h-2c-0.552 0-1 0.448-1 1s0.448 1 1 1h2c0.552 0 1-0.448 1-1s-0.448-1-1-1zM8.221 9.635c0.391 0.391 1.024 0.391 1.414 0s0.391-1.023 0-1.414l-1.414-1.414c-0.391-0.391-1.023-0.391-1.414 0s-0.391 1.023 0 1.414l1.414 1.414zM23.779 22.363c-0.392-0.391-1.023-0.391-1.414 0s-0.392 1.023 0 1.414l1.414 1.414c0.391 0.391 1.023 0.391 1.414 0s0.391-1.023 0-1.414l-1.414-1.414z"></path>
</symbol>
<symbol id="icon-arrow-up-right2" viewBox="0 0 32 32">
<path d="M7.414 27.414l16.586-16.586v7.172c0 1.105 0.895 2 2 2s2-0.895 2-2v-12c0-0.809-0.487-1.538-1.235-1.848-0.248-0.103-0.508-0.151-0.765-0.151v-0.001h-12c-1.105 0-2 0.895-2 2s0.895 2 2 2h7.172l-16.586 16.586c-0.391 0.39-0.586 0.902-0.586 1.414s0.195 1.024 0.586 1.414c0.781 0.781 2.047 0.781 2.828 0z"></path>
</symbol>
<symbol id="icon-arrow-long-right" viewBox="0 0 32 32">
<path d="M19.414 27.414l10-10c0.781-0.781 0.781-2.047 0-2.828l-10-10c-0.781-0.781-2.047-0.781-2.828 0s-0.781 2.047 0 2.828l6.586 6.586h-19.172c-1.105 0-2 0.895-2 2s0.895 2 2 2h19.172l-6.586 6.586c-0.39 0.39-0.586 0.902-0.586 1.414s0.195 1.024 0.586 1.414c0.781 0.781 2.047 0.781 2.828 0z"></path>
</symbol>
<symbol id="icon-arrow-long-down" viewBox="0 0 32 32">
<path d="M27.414 19.414l-10 10c-0.781 0.781-2.047 0.781-2.828 0l-10-10c-0.781-0.781-0.781-2.047 0-2.828s2.047-0.781 2.828 0l6.586 6.586v-19.172c0-1.105 0.895-2 2-2s2 0.895 2 2v19.172l6.586-6.586c0.39-0.39 0.902-0.586 1.414-0.586s1.024 0.195 1.414 0.586c0.781 0.781 0.781 2.047 0 2.828z"></path>
</symbol>
<symbol id="icon-arrow-long-left" viewBox="0 0 32 32">
<path d="M12.586 27.414l-10-10c-0.781-0.781-0.781-2.047 0-2.828l10-10c0.781-0.781 2.047-0.781 2.828 0s0.781 2.047 0 2.828l-6.586 6.586h19.172c1.105 0 2 0.895 2 2s-0.895 2-2 2h-19.172l6.586 6.586c0.39 0.39 0.586 0.902 0.586 1.414s-0.195 1.024-0.586 1.414c-0.781 0.781-2.047 0.781-2.828 0z"></path>
</symbol>
<symbol id="icon-controller-play" viewBox="0 0 20 20">
<path d="M15 10.001c0 0.299-0.305 0.514-0.305 0.514l-8.561 5.303c-0.624 0.409-1.134 0.106-1.134-0.669v-10.297c0-0.777 0.51-1.078 1.135-0.67l8.561 5.305c-0.001 0 0.304 0.215 0.304 0.514z"></path>
</symbol>
<symbol id="icon-feed" viewBox="0 0 22 28">
<path d="M6 21c0 1.656-1.344 3-3 3s-3-1.344-3-3 1.344-3 3-3 3 1.344 3 3zM14 22.922c0.016 0.281-0.078 0.547-0.266 0.75-0.187 0.219-0.453 0.328-0.734 0.328h-2.109c-0.516 0-0.938-0.391-0.984-0.906-0.453-4.766-4.234-8.547-9-9-0.516-0.047-0.906-0.469-0.906-0.984v-2.109c0-0.281 0.109-0.547 0.328-0.734 0.172-0.172 0.422-0.266 0.672-0.266h0.078c3.328 0.266 6.469 1.719 8.828 4.094 2.375 2.359 3.828 5.5 4.094 8.828zM22 22.953c0.016 0.266-0.078 0.531-0.281 0.734-0.187 0.203-0.438 0.313-0.719 0.313h-2.234c-0.531 0-0.969-0.406-1-0.938-0.516-9.078-7.75-16.312-16.828-16.844-0.531-0.031-0.938-0.469-0.938-0.984v-2.234c0-0.281 0.109-0.531 0.313-0.719 0.187-0.187 0.438-0.281 0.688-0.281h0.047c5.469 0.281 10.609 2.578 14.484 6.469 3.891 3.875 6.188 9.016 6.469 14.484z"></path>
</symbol>
<symbol id="icon-youtube-play" viewBox="0 0 28 28">
<path d="M11.109 17.625l7.562-3.906-7.562-3.953v7.859zM14 4.156c5.891 0 9.797 0.281 9.797 0.281 0.547 0.063 1.75 0.063 2.812 1.188 0 0 0.859 0.844 1.109 2.781 0.297 2.266 0.281 4.531 0.281 4.531v2.125s0.016 2.266-0.281 4.531c-0.25 1.922-1.109 2.781-1.109 2.781-1.062 1.109-2.266 1.109-2.812 1.172 0 0-3.906 0.297-9.797 0.297v0c-7.281-0.063-9.516-0.281-9.516-0.281-0.625-0.109-2.031-0.078-3.094-1.188 0 0-0.859-0.859-1.109-2.781-0.297-2.266-0.281-4.531-0.281-4.531v-2.125s-0.016-2.266 0.281-4.531c0.25-1.937 1.109-2.781 1.109-2.781 1.062-1.125 2.266-1.125 2.812-1.188 0 0 3.906-0.281 9.797-0.281v0z"></path>
</symbol>
<symbol id="icon-twitter" viewBox="0 0 26 28">
<path d="M25.312 6.375c-0.688 1-1.547 1.891-2.531 2.609 0.016 0.219 0.016 0.438 0.016 0.656 0 6.672-5.078 14.359-14.359 14.359-2.859 0-5.516-0.828-7.75-2.266 0.406 0.047 0.797 0.063 1.219 0.063 2.359 0 4.531-0.797 6.266-2.156-2.219-0.047-4.078-1.5-4.719-3.5 0.313 0.047 0.625 0.078 0.953 0.078 0.453 0 0.906-0.063 1.328-0.172-2.312-0.469-4.047-2.5-4.047-4.953v-0.063c0.672 0.375 1.453 0.609 2.281 0.641-1.359-0.906-2.25-2.453-2.25-4.203 0-0.938 0.25-1.797 0.688-2.547 2.484 3.062 6.219 5.063 10.406 5.281-0.078-0.375-0.125-0.766-0.125-1.156 0-2.781 2.25-5.047 5.047-5.047 1.453 0 2.766 0.609 3.687 1.594 1.141-0.219 2.234-0.641 3.203-1.219-0.375 1.172-1.172 2.156-2.219 2.781 1.016-0.109 2-0.391 2.906-0.781z"></path>
</symbol>
<symbol id="icon-github-square" viewBox="0 0 24 28">
<path d="M8.109 18.75v0c0.031-0.047 0.016-0.141-0.047-0.203-0.078-0.063-0.172-0.078-0.219-0.031-0.031 0.047-0.016 0.141 0.047 0.203 0.078 0.063 0.172 0.078 0.219 0.031zM7.672 18.109c-0.047-0.063-0.125-0.094-0.187-0.063-0.047 0.031-0.047 0.125 0 0.187 0.063 0.078 0.141 0.109 0.187 0.078v0c0.047-0.031 0.047-0.125 0-0.203zM7.031 17.484v0c0.016-0.031-0.016-0.094-0.078-0.125-0.047-0.016-0.109-0.016-0.125 0.031-0.031 0.047 0 0.094 0.063 0.125 0.063 0.016 0.125 0.016 0.141-0.031zM7.359 17.844v0c0.031-0.031 0.031-0.109-0.031-0.156-0.047-0.063-0.125-0.078-0.156-0.047-0.047 0.047-0.031 0.109 0.016 0.172 0.047 0.047 0.125 0.078 0.172 0.031zM8.703 19.016v0c0.016-0.063-0.047-0.141-0.141-0.172s-0.172 0-0.203 0.063c-0.016 0.063 0.047 0.141 0.141 0.172s0.172 0 0.203-0.063zM9.359 19.063v0c0-0.063-0.078-0.125-0.187-0.125-0.094 0-0.156 0.063-0.156 0.125s0.078 0.125 0.172 0.125 0.172-0.063 0.172-0.125zM9.969 18.953v0c-0.016-0.063-0.109-0.094-0.203-0.078s-0.156 0.078-0.141 0.141 0.094 0.109 0.187 0.094 0.156-0.094 0.156-0.156zM20 14c0-4.422-3.578-8-8-8s-8 3.578-8 8c0 3.531 2.297 6.531 5.469 7.594 0.406 0.078 0.547-0.172 0.547-0.391 0-0.187 0-0.812-0.016-1.484 0 0-2.219 0.484-2.688-0.953 0 0-0.359-0.922-0.891-1.156 0 0-0.719-0.5 0.063-0.5 0 0 0.781 0.063 1.219 0.828 0.703 1.234 1.875 0.875 2.328 0.672 0.078-0.516 0.281-0.875 0.516-1.078-1.781-0.203-3.656-0.891-3.656-3.953 0-0.875 0.313-1.578 0.828-2.141-0.078-0.203-0.359-1.016 0.078-2.125 0.672-0.203 2.203 0.828 2.203 0.828 0.641-0.187 1.313-0.266 2-0.266s1.359 0.078 2 0.266c0 0 1.531-1.031 2.203-0.828 0.438 1.109 0.156 1.922 0.078 2.125 0.516 0.562 0.828 1.266 0.828 2.141 0 3.078-1.875 3.75-3.656 3.953 0.281 0.25 0.547 0.734 0.547 1.484 0 1.062-0.016 1.922-0.016 2.188 0 0.219 0.141 0.469 0.547 0.391 3.172-1.062 5.469-4.062 5.469-7.594zM24 6.5v15c0 2.484-2.016 4.5-4.5 4.5h-15c-2.484 0-4.5-2.016-4.5-4.5v-15c0-2.484 2.016-4.5 4.5-4.5h15c2.484 0 4.5 2.016 4.5 4.5z"></path>
</symbol>
<symbol id="icon-sign" viewBox="0 0 208 110" >
<path d="m10.7 8.7c-0.4 4.3-2.7 19-5.2 32.7s-4.5 25.7-4.5 26.5c0 2.6 1.6 4.2 3.3 3.5 2.1-0.8 2.2-2.4 0.2-2.4-1.2 0-1.5-0.7-1-3.3 0.3-1.7 1.2-6.8 1.9-11.2 1.1-7 1.5-8 3.2-7.7 10.1 1.7 21.1 1.2 43.4-2.2 28.3-4.2 50-6.9 50.7-6.3 0.2 0.3-0.1 3.3-0.7 6.7s-0.9 6.4-0.6 6.7c1.2 1.3 2.4-1.1 2.9-6.3 0.3-3.1 1-6.1 1.5-6.6 0.6-0.6 9.9-1.8 20.9-2.8 33-3.1 38.7-3.4 38-2.3-0.4 0.6-1.9 1.4-3.4 1.8-1.6 0.3-8 2.6-14.3 5-6.3 2.5-23.2 8.7-37.5 13.9s-33.2 12.2-42 15.6c-28.5 10.9-50.4 19-51.5 19-0.5 0-1 0.4-1 1 0 0.5 0.2 1 0.4 1 1.2 0 28-9.7 60.6-22 20.6-7.8 42.5-15.9 48.5-18 6.1-2.1 13.6-4.8 16.8-6s6-2 6.3-1.8c0.2 0.3-0.5 1.7-1.6 3.1-1.2 1.4-2.7 4.3-3.4 6.4-1.1 3.2-1.7 3.8-4.5 3.9-3.9 0.2-7.1 2.9-7.1 6 0 2.3 2.5 4.4 4.5 3.9 0.6-0.2 2.2-0.6 3.8-0.9 4.2-1 3.2-2.5-1.3-1.9-3.6 0.5-4 0.3-4-1.5 0-2.9 4.4-4 6.9-1.8 1.7 1.5 1.8 1.3 3-3.7 0.6-2.9 2.3-7 3.6-9 1.4-2 2.5-4.2 2.5-5s1.9-1.9 4.3-2.7c2.3-0.6 7.1-2.5 10.7-4.2 5-2.2 6.1-3.1 5-3.8-2.5-1.6-12-1.2-46.6 2-37.5 3.5-49.3 4.9-71.9 8.5-28.1 4.4-43.5 4.3-43.5-0.3 0-2.9 13.9-15.2 26.9-24 10.2-6.9 12.5-8.1 13.8-7 1.2 1 1.8 0.8 3.4-1.2 2.3-3.1 2.4-4 0.1-4-4 0-27.1 15.3-37.3 24.7-3.5 3.3-5.9 4.9-5.9 4 0-0.8 0.9-5.9 2-11.2 2-9.9 2.7-22.5 1.1-22.5-0.4 0-1.1 3.5-1.4 7.7z"></path>
<path d="m165.1 40.7c-0.7 1.6-1.6 5.4-1.9 8.6-0.5 5.6-0.6 5.8-2.9 5.2-3.2-0.8-8.6 2.6-11.4 7.1-2.6 4.2-1.5 6.1 2.8 4.9 1.5-0.5 3.3-0.7 3.8-0.6 0.6 0.2 8.2 1.8 17 3.6 26.5 5.5 31.5 6.8 31.5 8 0 1.6-15.1 4-41 6.5-33.2 3.2-75.6 9.8-115.5 18-8.2 1.7-19.2 3.4-24.2 3.7-2.2066 0.132-5.0134 0.952-8.2618-0.36-1.2736-0.678-2.2382-1.25-0.5001-3.327 0.1923-0.577-0.7381-2.1132-2.0381-1.013-2 1.7-1.9 3.3 0.3 5.3 3 2.7 13.2 2.1 35.4-2.2 51.6-10 83.4-14.9 118.3-18.1 12.7-1.2 26.1-2.8 29.9-3.6 6.7-1.3 11.6-3.6 11.6-5.3 0-2.1-17.4-6.7-40.3-10.7-5.3-1-9.6-2.2-9.4-2.8 0.4-1.3 18.2-7.2 27.4-9.1 3.9-0.8 8.6-1.2 10.4-0.8 2.5 0.5 3.1 0.3 2.7-0.8-1-2.9-20.9 0-32 4.6-1.5 0.6-1.8 0.1-1.8-3.2 0-2.1 0.7-6.5 1.5-9.6 1.8-6.8 1.7-6.7 0.7-6.7-0.5 0-1.4 1.2-2.1 2.7zm-3.1 17.3c0 0.5-2 1.9-4.5 3.1s-4.8 2.5-5.1 3c-0.7 1.3-2.4 1.1-2.4-0.2 0-2.2 6.2-6.9 9.1-6.9 1.6 0 2.9 0.4 2.9 1z"></path>
<path d="m84.2 49.6c-2.4 1.6-3 5.4-0.9 5.4 2.4 0 10.7-3.2 10.7-4.1 0-1.2-0.1-1.2-4.3 0.6-4.3 1.8-4.7 1.8-4.7 0.5 0-0.6 1.1-1.5 2.5-2s2.5-1.2 2.5-1.5c0-1.1-3.7-0.4-5.8 1.1z"></path>
<path d="m27.6 54.4c-2.9 2.5-6.6 4.6-8 4.8-1.5 0.2-2.5 0.7-2.4 1.3 0.5 1.7 7.9 0.5 13.7-2.1 6.5-2.9 7.3-3 8.9-0.4 1.2 2 4.6 2.7 5.6 1.1 0.3-0.5-0.5-1.2-1.8-1.5s-2.6-1.5-2.9-2.7c-0.4-1.6-1.1-1.9-2.6-1.4-1.7 0.5-2.1 0.2-2.1-1.4 0-3.2-2.4-2.5-8.4 2.3zm5.1 0.3c-0.9 0.9-1.9 1.4-2.3 1.1-1-1 0.6-2.8 2.4-2.8 1.5 0 1.5 0.1-0.1 1.7z"></path>
<path d="m59.2 52.3c-2.5 2.7-3 7.7-0.8 7.7 0.9 0 1.6-1.2 1.8-2.7 0.2-1.9 1.2-3.2 3.1-4.1 1.5-0.7 2.5-1.7 2.2-2.3-1.1-1.6-4.1-1-6.3 1.4z"></path>
<path d="m116.1 57.6c-4.4 3.7-4.1 5.8 0.5 5.1 4.3-0.7 11.7-5.3 10.9-6.7-1.3-2.1-8.3-1.1-11.4 1.6zm6.9 0.2c0 0.9-4.4 3.2-6 3.2-2.3 0-0.7-2 2.3-2.9 1.7-0.5 3.3-1 3.5-1 0.1-0.1 0.2 0.3 0.2 0.7z"></path>
</symbol>
<symbol id="icon-search" viewBox="0 0 18 18">
<path d="M3.75068 11.3405C1.65161 9.23359 1.65161 5.80439 3.75068 3.69748C4.76756 2.67681 6.11976 2.11292 7.55689 2.11292C8.99619 2.11292 10.3484 2.67681 11.3653 3.69748C13.4622 5.80439 13.4622 9.23359 11.3653 11.3405C9.2662 13.4452 5.84975 13.4452 3.75068 11.3405ZM18 16.4548L13.595 12.0333C15.7986 9.06529 15.5874 4.8471 12.9047 2.15226C10.0479 -0.715235 5.06587 -0.719606 2.21121 2.15226C-0.737072 5.10937 -0.737072 9.9286 2.21121 12.8857C3.68536 14.3654 5.62112 15.1041 7.55906 15.1041C9.14861 15.1041 10.7229 14.5752 12.0555 13.5785L16.4605 18L18 16.4548Z"></path>
</symbol>
<symbol id="icon-plus1" viewBox="0 0 24 24">
<path d="M5 13h6v6c0 0.552 0.448 1 1 1s1-0.448 1-1v-6h6c0.552 0 1-0.448 1-1s-0.448-1-1-1h-6v-6c0-0.552-0.448-1-1-1s-1 0.448-1 1v6h-6c-0.552 0-1 0.448-1 1s0.448 1 1 1z"></path>
</symbol>
<symbol id="icon-users" viewBox="0 0 24 24">
<path stroke="white" stroke-linecap="round" stroke-linejoin="round" stroke-width="1.5" d="M5.78168 19.25H13.2183C13.7828 19.25 14.227 18.7817 14.1145 18.2285C13.804 16.7012 12.7897 14 9.5 14C6.21031 14 5.19605 16.7012 4.88549 18.2285C4.773 18.7817 5.21718 19.25 5.78168 19.25Z"></path><path stroke="white" stroke-linecap="round" stroke-linejoin="round" stroke-width="1.5" d="M15.75 14C17.8288 14 18.6802 16.1479 19.0239 17.696C19.2095 18.532 18.5333 19.25 17.6769 19.25H16.75"></path><circle cx="9.5" cy="7.5" r="2.75" stroke="white" stroke-linecap="round" stroke-linejoin="round" stroke-width="1.5"></circle><path stroke="white" stroke-linecap="round" stroke-linejoin="round" stroke-width="1.5" d="M14.75 10.25C16.2688 10.25 17.25 9.01878 17.25 7.5C17.25 5.98122 16.2688 4.75 14.75 4.75"></path>
</symbol>
<symbol id="icon-heart-o" viewBox="0 0 24 24">
<path stroke="white" stroke-linecap="round" stroke-linejoin="round" stroke-width="1.5" d="M11.995 7.233c-1.45-1.623-3.867-2.06-5.683-.573-1.816 1.486-2.072 3.971-.645 5.73l6.328 5.86 6.329-5.86c1.426-1.759 1.201-4.26-.646-5.73-1.848-1.471-4.233-1.05-5.683.573z" clip-rule="evenodd"></path>
</symbol>
<symbol id="icon-react" viewBox="0 0 24 24">
<rect width="14.5" height="14.5" x="4.75" y="4.75" stroke="white" stroke-linecap="round" stroke-linejoin="round" stroke-width="1.5" rx="2"></rect><path stroke="white" stroke-linecap="round" stroke-linejoin="round" stroke-width="1.5" d="M8.75 10.75L11.25 13L8.75 15.25"></path>
</symbol>
<symbol id="icon-computer" viewBox="0 0 24 24">
<path d="M5.75 5.75a1 1 0 011-1h10.5a1 1 0 011 1v8.5H5.75v-8.5zM18.25 14.5l.746 3.544a1 1 0 01-.979 1.206H5.982a1 1 0 01-.978-1.206L5.75 14.5" stroke="white" stroke-width="1.5" stroke-linecap="round" stroke-linejoin="round"></path>
</symbol>
<symbol id="icon-smile" viewBox="0 0 24 24">
<path stroke="white" stroke-linecap="round" stroke-linejoin="round" stroke-width="1.5" d="M8.75 4.75h6.5a4 4 0 014 4v6.5a4 4 0 01-4 4h-6.5a4 4 0 01-4-4v-6.5a4 4 0 014-4z"></path><path stroke="white" stroke-linecap="round" stroke-linejoin="round" stroke-width="1.5" d="M7.75 12.75S9 15.25 12 15.25s4.25-2.5 4.25-2.5"></path><circle cx="14" cy="10" r="1" fill="white"></circle><circle cx="10" cy="10" r="1" fill="white"></circle>
</symbol>
<symbol id="icon-box" viewBox="0 0 24 24">
<path d="M4.75 9.75a2 2 0 012-2h10.5a2 2 0 012 2v7.5a2 2 0 01-2 2H6.75a2 2 0 01-2-2v-7.5z" stroke="white" stroke-width="1.5" stroke-linecap="round" stroke-linejoin="round"></path><path d="M8.75 18.75v-12a2 2 0 012-2h2.5a2 2 0 012 2v12" stroke="white" stroke-width="1.5" stroke-linecap="round" stroke-linejoin="round"></path>
</symbol>
<symbol id="icon-rocket" viewBox="0 0 24 24">
<path d="M13.456 6.855a8 8 0 015.408-2.105h.386v.386a8 8 0 01-2.105 5.408l-6.15 6.704-4.243-4.243 6.704-6.15zM7.25 16.75l-2.5 2.5M9.25 18.75l-.5.5M5.25 14.75l-.5.5M13 19.25L14.24 14 11 17.25l2 2zM6.75 13L10 9.75l-5.25 1 2 2.25z" stroke="white" stroke-width="1.5" stroke-linecap="round" stroke-linejoin="round"></path>
</symbol>
<symbol id="icon-goal" viewBox="0 0 24 24">
<path d="M7.75 4.75h8.5V11a4.25 4.25 0 01-8.5 0V4.75zM16.5 6.75h.104a2.646 2.646 0 01.904 5.133l-1.008.367M7.5 6.75h-.104a2.646 2.646 0 00-.904 5.133l1.008.367M12 15.5V19M8.75 19.25h6.5" stroke="white" stroke-width="1.5" stroke-linecap="round" stroke-linejoin="round"></path>
</symbol>
<symbol id="icon-comment" viewBox="0 0 24 24">
<path stroke="white" stroke-linecap="round" stroke-linejoin="round" stroke-width="1.5" d="M12 18.25c3.5 0 7.25-1.75 7.25-6.25S15.5 5.75 12 5.75 4.75 7.5 4.75 12c0 1.03.196 1.916.541 2.67.215.47.336.987.24 1.495l-.262 1.399a1 1 0 001.168 1.167l3.207-.602a2.24 2.24 0 01.764-.003c.527.084 1.062.124 1.592.124z"></path><path stroke="white" stroke-linecap="round" stroke-linejoin="round" d="M9.5 12a.5.5 0 11-1 0 .5.5 0 011 0zM12.5 12a.5.5 0 11-1 0 .5.5 0 011 0zM15.5 12a.5.5 0 11-1 0 .5.5 0 011 0z"></path>
</symbol>
<symbol id="icon-apple" viewBox="0 0 24 24">
<path fill-rule="evenodd" clip-rule="evenodd" d="M14.859 6.15322C15.474 5.36022 15.94 4.23822 15.771 3.09222C14.766 3.16222 13.591 3.80522 12.907 4.64322C12.282 5.40322 11.768 6.53222 11.968 7.63022C13.067 7.66422 14.202 7.00522 14.859 6.15322Z" ></path><path fill-rule="evenodd" clip-rule="evenodd" d="M19.7438 9.41843C18.7788 8.20843 17.4228 7.50543 16.1408 7.50543C14.4498 7.50543 13.7348 8.31543 12.5598 8.31543C11.3478 8.31543 10.4288 7.50843 8.9658 7.50843C7.5288 7.50843 5.9998 8.38643 5.0298 9.88743C3.6668 12.0014 3.8998 15.9764 6.1088 19.3614C6.8998 20.5734 7.9558 21.9354 9.3368 21.9474C10.5658 21.9594 10.9128 21.1594 12.5778 21.1504C14.2428 21.1414 14.5578 21.9584 15.7858 21.9454C17.1678 21.9344 18.2808 20.4244 19.0718 19.2134C19.6388 18.3454 19.8488 17.9074 20.2898 16.9274C17.0928 15.7104 16.5798 11.1634 19.7438 9.41843Z" ></path>
</symbol>
<symbol id="icon-google" width="24" height="24" viewBox="0 0 24 24">
<path fill-rule="evenodd" clip-rule="evenodd" d="M12.4371 20.52C17.1467 20.52 20.2754 17.2795 20.2754 12.7058C20.2754 12.1823 20.2202 11.7776 20.1429 11.3745H12.4383V14.1243H17.071C16.8813 15.2925 15.6677 17.5728 12.4383 17.5728C9.65598 17.5728 7.38356 15.3134 7.38356 12.5198C7.38356 9.72662 9.65477 7.46601 12.4383 7.46601C14.0305 7.46601 15.0881 8.13203 15.6899 8.69936L17.9051 6.61522C16.4789 5.30606 14.6419 4.52002 12.4371 4.52002C7.9277 4.52002 4.27539 8.09966 4.27539 12.5198C4.27539 16.9408 7.9277 20.52 12.4371 20.52" ></path>
</symbol>
<symbol id="icon-spotify" viewBox="0 0 24 24">
<path fill-rule="evenodd" clip-rule="evenodd" d="M6.81041 8.76871C10.2023 7.77533 15.3362 8.08921 18.5284 9.95221C19.3463 10.4236 19.0245 11.6166 18.1549 11.6166L18.1538 11.6161C17.9648 11.6161 17.8489 11.5694 17.6852 11.4749C15.1028 9.93252 10.4819 9.56239 7.49273 10.3977C7.3611 10.4337 7.19741 10.4916 7.02416 10.4916C6.54435 10.4916 6.17873 10.1165 6.17873 9.63496C6.17873 9.14221 6.48416 8.86321 6.81041 8.76871M17.0305 14.3819C16.9461 14.3594 16.9703 14.4336 16.5827 14.23C14.3142 12.8873 10.933 12.3456 7.9236 13.163C7.74979 13.2102 7.65529 13.2569 7.49216 13.2569C6.68835 13.2569 6.47573 12.0492 7.35098 11.8023C10.888 10.8083 14.682 11.3883 17.3235 12.9593C17.6177 13.1337 17.7342 13.3593 17.7342 13.6743C17.7302 14.0658 17.4254 14.3819 17.0305 14.3819M16.0534 16.7618V16.763C15.4476 16.763 13.5362 14.6418 8.16323 15.7426C8.02148 15.7797 7.83585 15.8371 7.73123 15.8371C7.04498 15.8371 6.91391 14.8105 7.65135 14.6536C10.6236 13.9977 13.6617 14.0551 16.252 15.6048C16.8702 15.9991 16.6075 16.7618 16.0534 16.7618M12.3994 21.52C17.3674 21.52 21.3994 17.488 21.3994 12.52C21.3994 7.55202 17.3674 3.52002 12.3994 3.52002C7.43141 3.52002 3.39941 7.55202 3.39941 12.52C3.39941 17.488 7.43141 21.52 12.3994 21.52" ></path>
</symbol>
</defs>
</svg>
